<svg xmlns="http://www.w3.org/2000/svg" width="1000" height="720" viewBox="0 0 1000 720">
  <defs>
    <marker id="arrow" markerWidth="10" markerHeight="10" refX="8" refY="3" orient="auto" markerUnits="strokeWidth">
      <path d="M0,0 L0,6 L9,3 z" fill="#000"/>
    </marker>
    <style>
      text { font-family: SimSun, Songti SC, serif; font-size: 23px; fill: #000; }
      .small { font-size: 18px; }
      .box { fill: #fff; stroke: #000; stroke-width: 2; }
      .line { stroke: #000; stroke-width: 2; fill: none; marker-end: url(#arrow); }
    </style>
  </defs>
  <text x="440" y="45">图5</text>
  <rect class="box" x="90" y="100" width="300" height="85"/>
  <text x="174" y="153">候选生成</text>
  <rect class="box" x="610" y="100" width="300" height="85"/>
  <text x="678" y="153">170 学习排序</text>
  <line class="line" x1="390" y1="142" x2="610" y2="142"/>
  <line class="line" x1="240" y1="185" x2="240" y2="275"/>
  <rect class="box" x="90" y="275" width="300" height="85"/>
  <text x="153" y="328">基础规则排序</text>
  <line class="line" x1="390" y1="318" x2="500" y2="410"/>
  <line class="line" x1="760" y1="185" x2="560" y2="410"/>
  <rect class="box" x="350" y="410" width="300" height="90"/>
  <text x="425" y="465">190 推广门控</text>
  <line class="line" x1="500" y1="500" x2="500" y2="585"/>
  <rect class="box" x="280" y="585" width="440" height="90"/>
  <text x="380" y="640">180 审计输出</text>
  <text class="small" x="379" y="538">预设验证条件 / 人工审核条件</text>
</svg>
